<svg width="16" height="16" viewBox="0 0 16 16" fill="none" xmlns="http://www.w3.org/2000/svg">
<g clip-path="url(#clip0_2_208)">
<path d="M9.85981 5.32117C7.81137 5.32117 6.14478 6.98773 6.14478 9.03621C6.14478 11.0847 7.81131 12.7512 9.85981 12.7512C10.2716 12.7512 10.6766 12.6841 11.0634 12.5517C11.2091 12.5018 11.2868 12.3432 11.237 12.1975C11.1871 12.0517 11.0285 11.9739 10.8827 12.0239C10.5542 12.1363 10.2101 12.1933 9.85985 12.1933C8.11903 12.1933 6.70275 10.7771 6.70275 9.03624C6.70275 7.29539 8.11903 5.87914 9.85985 5.87914C11.6007 5.87914 13.0169 7.29539 13.0169 9.03624C13.0169 10.0438 12.5527 10.9674 11.7433 11.5701C11.6198 11.6622 11.5942 11.8369 11.6862 11.9605C11.7782 12.084 11.9529 12.1095 12.0765 12.0176C13.0147 11.3189 13.5748 10.2044 13.5748 9.03621C13.5749 6.98773 11.9083 5.32117 9.85981 5.32117Z" fill="white"/>
<path d="M9.85977 6.41931C9.33027 6.41931 8.81992 6.57697 8.38395 6.87528C8.2568 6.96228 8.22423 7.13588 8.31123 7.26303C8.39823 7.39016 8.57183 7.42278 8.69899 7.33572C9.04177 7.10122 9.44317 6.97725 9.85974 6.97725C10.995 6.97725 11.9186 7.90088 11.9186 9.03616C11.9186 10.1714 10.995 11.0951 9.85974 11.0951C8.72449 11.0951 7.80083 10.1714 7.80083 9.03616C7.80083 8.6955 7.88583 8.35791 8.04661 8.05991C8.1198 7.92435 8.06923 7.75513 7.93361 7.68194C7.79811 7.60878 7.6288 7.65938 7.55564 7.79497C7.35108 8.17406 7.24292 8.60325 7.24292 9.03616C7.24292 10.4791 8.41683 11.653 9.85974 11.653C11.3026 11.653 12.4766 10.479 12.4766 9.03616C12.4766 7.59328 11.3026 6.41931 9.85977 6.41931Z" fill="white"/>
<path d="M3.0275 4.93115C2.31381 4.93115 1.73315 5.51175 1.73315 6.2255C1.73315 6.93925 2.31381 7.51985 3.0275 7.51985C3.74119 7.51985 4.32185 6.93925 4.32185 6.2255C4.32185 5.51175 3.74119 4.93115 3.0275 4.93115ZM3.0275 6.96191C2.62144 6.96191 2.29109 6.63153 2.29109 6.2255C2.29109 5.81947 2.62147 5.48909 3.0275 5.48909C3.43353 5.48909 3.76391 5.81947 3.76391 6.2255C3.76391 6.63153 3.43356 6.96191 3.0275 6.96191Z" fill="white"/>
<path d="M3.69379 10.9928H2.3611C1.90985 10.9928 1.54272 11.3599 1.54272 11.8112C1.54272 12.2625 1.90988 12.6296 2.3611 12.6296H3.69379C4.14504 12.6296 4.51214 12.2625 4.51214 11.8112C4.51214 11.3599 4.14504 10.9928 3.69379 10.9928ZM3.69379 12.0716H2.3611C2.21751 12.0716 2.10063 11.9548 2.10063 11.8112C2.10063 11.6676 2.21751 11.5507 2.3611 11.5507H3.69379C3.83739 11.5507 3.95423 11.6676 3.95423 11.8112C3.95423 11.9548 3.83742 12.0716 3.69379 12.0716Z" fill="white"/>
<path d="M14.5405 3.79869H14.4619C14.3338 3.79869 14.2526 3.63679 14.0977 3.26741C13.8404 2.65379 13.4516 1.72644 12.0292 1.72644H9.95471C8.53224 1.72644 8.14342 2.65382 7.88611 3.26744C7.73124 3.63682 7.64995 3.79869 7.52195 3.79869H6.19398V3.27704C6.19398 2.77197 5.78304 2.36104 5.27798 2.36104H3.66457C3.15951 2.36104 2.74857 2.77197 2.74857 3.27704V3.79866H1.45957C0.654814 3.79869 3.12501e-05 4.45345 3.12501e-05 5.25826V7.43861C3.12501e-05 7.5927 0.124938 7.71758 0.279001 7.71758C0.433063 7.71758 0.55797 7.5927 0.55797 7.43861V5.25826C0.55797 4.7611 0.962471 4.35663 1.4596 4.35663H11.6639C11.8179 4.35663 11.9428 4.23176 11.9428 4.07766C11.9428 3.92357 11.8179 3.79869 11.6639 3.79869H8.2598C8.31149 3.69566 8.3568 3.58766 8.40061 3.48316C8.64774 2.89379 8.90327 2.28438 9.95468 2.28438H12.0291C13.0805 2.28438 13.3361 2.89382 13.5832 3.48316C13.627 3.58769 13.6723 3.69569 13.724 3.79869H12.7797C12.6256 3.79869 12.5007 3.92357 12.5007 4.07766C12.5007 4.23176 12.6256 4.35663 12.7797 4.35663H14.5405C15.0377 4.35663 15.4421 4.76113 15.4421 5.25826V12.8141C15.4421 13.3112 15.0376 13.7157 14.5405 13.7157H1.45957C0.962408 13.7157 0.557939 13.3112 0.557939 12.8141V8.55442C0.557939 8.40033 0.433032 8.27545 0.278969 8.27545C0.124907 8.27545 0 8.40033 0 8.55442V12.8141C0 13.6189 0.654783 14.2736 1.45957 14.2736H14.5405C15.3453 14.2736 16 13.6188 16 12.8141V5.25826C16.0001 4.45345 15.3453 3.79869 14.5405 3.79869ZM5.63604 3.79866H3.30648V3.27704C3.30648 3.07957 3.46713 2.91897 3.66454 2.91897H5.27795C5.47539 2.91897 5.63601 3.07957 5.63601 3.27704V3.79866H5.63604Z" fill="white"/>
</g>
<defs>
<clipPath id="clip0_2_208">
<rect width="16" height="16" fill="white"/>
</clipPath>
</defs>
</svg>
